<svg width="654" height="707" viewBox="0 0 654 707" fill="none" xmlns="http://www.w3.org/2000/svg">
<rect width="654" height="707" rx="56" fill="#333333"/>
<g filter="url(#filter0_i_743_261)">
<rect x="19" y="19" width="616" height="615" rx="43" fill="white"/>
</g>
<g filter="url(#filter1_i_743_261)">
<rect x="85" y="473" width="484" height="66" rx="33" fill="#E11C3C"/>
</g>
<g filter="url(#filter2_d_743_261)">
<circle cx="327" cy="506" r="50" fill="white"/>
</g>
<circle cx="327" cy="506" r="37" fill="#26890C"/>
<g filter="url(#filter3_d_743_261)">
<path d="M563 59.3384C577.359 59.3384 589 70.979 589 85.3384V346.231C589 360.59 577.359 372.23 563 372.23H387.724L333.934 423.99C330.062 427.715 323.938 427.715 320.066 423.99L266.276 372.23H91C76.6406 372.23 65 360.589 65 346.23V85.3384C65 70.979 76.6406 59.3384 91 59.3384H563Z" fill="#1368CE"/>
</g>
<path d="M274.012 140V294H245.412V163.98H212.852V140H274.012ZM368.801 296.2C356.481 296.2 345.481 293.12 335.801 286.96C326.121 280.653 318.494 271.56 312.921 259.68C307.348 247.653 304.561 233.427 304.561 217C304.561 200.573 307.348 186.42 312.921 174.54C318.494 162.513 326.121 153.42 335.801 147.26C345.481 140.953 356.481 137.8 368.801 137.8C381.121 137.8 392.121 140.953 401.801 147.26C411.628 153.42 419.328 162.513 424.901 174.54C430.474 186.42 433.261 200.573 433.261 217C433.261 233.427 430.474 247.653 424.901 259.68C419.328 271.56 411.628 280.653 401.801 286.96C392.121 293.12 381.121 296.2 368.801 296.2ZM368.801 271.34C379.801 271.34 388.454 266.793 394.761 257.7C401.214 248.607 404.441 235.04 404.441 217C404.441 198.96 401.214 185.393 394.761 176.3C388.454 167.207 379.801 162.66 368.801 162.66C357.948 162.66 349.294 167.207 342.841 176.3C336.534 185.393 333.381 198.96 333.381 217C333.381 235.04 336.534 248.607 342.841 257.7C349.294 266.793 357.948 271.34 368.801 271.34Z" fill="white"/>
<defs>
<filter id="filter0_i_743_261" x="19" y="19" width="616" height="619" filterUnits="userSpaceOnUse" color-interpolation-filters="sRGB">
<feFlood flood-opacity="0" result="BackgroundImageFix"/>
<feBlend mode="normal" in="SourceGraphic" in2="BackgroundImageFix" result="shape"/>
<feColorMatrix in="SourceAlpha" type="matrix" values="0 0 0 0 0 0 0 0 0 0 0 0 0 0 0 0 0 0 127 0" result="hardAlpha"/>
<feOffset dy="4"/>
<feGaussianBlur stdDeviation="7.5"/>
<feComposite in2="hardAlpha" operator="arithmetic" k2="-1" k3="1"/>
<feColorMatrix type="matrix" values="0 0 0 0 0 0 0 0 0 0 0 0 0 0 0 0 0 0 0.5 0"/>
<feBlend mode="normal" in2="shape" result="effect1_innerShadow_743_261"/>
</filter>
<filter id="filter1_i_743_261" x="85" y="473" width="484" height="70" filterUnits="userSpaceOnUse" color-interpolation-filters="sRGB">
<feFlood flood-opacity="0" result="BackgroundImageFix"/>
<feBlend mode="normal" in="SourceGraphic" in2="BackgroundImageFix" result="shape"/>
<feColorMatrix in="SourceAlpha" type="matrix" values="0 0 0 0 0 0 0 0 0 0 0 0 0 0 0 0 0 0 127 0" result="hardAlpha"/>
<feOffset dy="4"/>
<feGaussianBlur stdDeviation="5"/>
<feComposite in2="hardAlpha" operator="arithmetic" k2="-1" k3="1"/>
<feColorMatrix type="matrix" values="0 0 0 0 0 0 0 0 0 0 0 0 0 0 0 0 0 0 0.25 0"/>
<feBlend mode="normal" in2="shape" result="effect1_innerShadow_743_261"/>
</filter>
<filter id="filter2_d_743_261" x="262" y="441" width="130" height="130" filterUnits="userSpaceOnUse" color-interpolation-filters="sRGB">
<feFlood flood-opacity="0" result="BackgroundImageFix"/>
<feColorMatrix in="SourceAlpha" type="matrix" values="0 0 0 0 0 0 0 0 0 0 0 0 0 0 0 0 0 0 127 0" result="hardAlpha"/>
<feOffset/>
<feGaussianBlur stdDeviation="7.5"/>
<feComposite in2="hardAlpha" operator="out"/>
<feColorMatrix type="matrix" values="0 0 0 0 0 0 0 0 0 0 0 0 0 0 0 0 0 0 0.25 0"/>
<feBlend mode="normal" in2="BackgroundImageFix" result="effect1_dropShadow_743_261"/>
<feBlend mode="normal" in="SourceGraphic" in2="effect1_dropShadow_743_261" result="shape"/>
</filter>
<filter id="filter3_d_743_261" x="45" y="43.3384" width="564" height="407.446" filterUnits="userSpaceOnUse" color-interpolation-filters="sRGB">
<feFlood flood-opacity="0" result="BackgroundImageFix"/>
<feColorMatrix in="SourceAlpha" type="matrix" values="0 0 0 0 0 0 0 0 0 0 0 0 0 0 0 0 0 0 127 0" result="hardAlpha"/>
<feOffset dy="4"/>
<feGaussianBlur stdDeviation="10"/>
<feComposite in2="hardAlpha" operator="out"/>
<feColorMatrix type="matrix" values="0 0 0 0 0.0745098 0 0 0 0 0.407843 0 0 0 0 0.807843 0 0 0 0.75 0"/>
<feBlend mode="normal" in2="BackgroundImageFix" result="effect1_dropShadow_743_261"/>
<feBlend mode="normal" in="SourceGraphic" in2="effect1_dropShadow_743_261" result="shape"/>
</filter>
</defs>
</svg>
